<svg width="20" height="20" viewBox="0 0 20 20" fill="none" xmlns="http://www.w3.org/2000/svg">
<path d="M6.50033 1.66687H13.5003C16.167 1.66687 18.3337 3.83354 18.3337 6.5002V13.5002C18.3337 14.7821 17.8244 16.0115 16.918 16.9179C16.0116 17.8243 14.7822 18.3335 13.5003 18.3335H6.50033C3.83366 18.3335 1.66699 16.1669 1.66699 13.5002V6.5002C1.66699 5.21832 2.17622 3.98895 3.08264 3.08252C3.98907 2.17609 5.21845 1.66687 6.50033 1.66687ZM6.33366 3.33354C5.53801 3.33354 4.77495 3.64961 4.21234 4.21222C3.64973 4.77483 3.33366 5.53789 3.33366 6.33354V13.6669C3.33366 15.3252 4.67533 16.6669 6.33366 16.6669H13.667C14.4626 16.6669 15.2257 16.3508 15.7883 15.7882C16.3509 15.2256 16.667 14.4625 16.667 13.6669V6.33354C16.667 4.6752 15.3253 3.33354 13.667 3.33354H6.33366ZM14.3753 4.58354C14.6516 4.58354 14.9165 4.69328 15.1119 4.88863C15.3072 5.08398 15.417 5.34894 15.417 5.6252C15.417 5.90147 15.3072 6.16642 15.1119 6.36177C14.9165 6.55712 14.6516 6.66687 14.3753 6.66687C14.0991 6.66687 13.8341 6.55712 13.6388 6.36177C13.4434 6.16642 13.3337 5.90147 13.3337 5.6252C13.3337 5.34894 13.4434 5.08398 13.6388 4.88863C13.8341 4.69328 14.0991 4.58354 14.3753 4.58354ZM10.0003 5.83354C11.1054 5.83354 12.1652 6.27252 12.9466 7.05393C13.728 7.83533 14.167 8.89513 14.167 10.0002C14.167 11.1053 13.728 12.1651 12.9466 12.9465C12.1652 13.7279 11.1054 14.1669 10.0003 14.1669C8.89526 14.1669 7.83545 13.7279 7.05405 12.9465C6.27265 12.1651 5.83366 11.1053 5.83366 10.0002C5.83366 8.89513 6.27265 7.83533 7.05405 7.05393C7.83545 6.27252 8.89526 5.83354 10.0003 5.83354ZM10.0003 7.5002C9.33728 7.5002 8.7014 7.7636 8.23256 8.23244C7.76372 8.70128 7.50033 9.33716 7.50033 10.0002C7.50033 10.6632 7.76372 11.2991 8.23256 11.768C8.7014 12.2368 9.33728 12.5002 10.0003 12.5002C10.6634 12.5002 11.2993 12.2368 11.7681 11.768C12.2369 11.2991 12.5003 10.6632 12.5003 10.0002C12.5003 9.33716 12.2369 8.70128 11.7681 8.23244C11.2993 7.7636 10.6634 7.5002 10.0003 7.5002Z" fill="white"/>
</svg>
