<svg width="20" height="20" viewBox="0 0 20 20" fill="none" xmlns="http://www.w3.org/2000/svg">
<path d="M13.6861 18.4721C11.9814 18.4721 10.2768 18.4721 8.57218 18.4721C7.83843 18.4721 7.10461 18.4748 6.37086 18.4721C5.83929 18.4702 5.34722 18.1912 5.13679 17.6875C5.04683 17.4721 5.03968 17.254 5.03968 17.0276C5.03968 15.4843 5.03968 13.9409 5.03968 12.3975C5.03968 10.1727 5.03968 7.94793 5.03968 5.72312C5.03968 4.96797 5.03968 4.21281 5.03968 3.45766C5.03968 2.93172 4.97953 2.38492 5.36218 1.95785C5.86793 1.3934 6.70777 1.52824 7.39023 1.52824H10.6052H13.3587C13.6071 1.52824 13.8516 1.51574 14.0922 1.59379C14.6289 1.76781 14.959 2.2793 14.9649 2.83059C14.9792 4.1552 14.9649 5.48078 14.9649 6.80543V13.5441C14.9649 14.7595 14.9837 15.9766 14.9649 17.1919C14.9539 17.8994 14.393 18.4597 13.6861 18.4721C13.3848 18.4774 13.3838 18.9462 13.6861 18.9409C14.5091 18.9264 15.2527 18.3457 15.4019 17.5218C15.435 17.3396 15.4337 17.1615 15.4337 16.9783C15.4337 16.3607 15.4337 15.7431 15.4337 15.1255C15.4337 12.9196 15.4337 10.7136 15.4337 8.50758C15.4337 6.7357 15.4337 4.96379 15.4337 3.19191C15.4337 3.06668 15.4354 2.94133 15.4337 2.81613C15.4244 2.13953 15.0423 1.50203 14.4169 1.22066C14.0942 1.07551 13.7681 1.05957 13.4248 1.05957C13.0654 1.05957 12.706 1.05957 12.3466 1.05957C10.3794 1.05957 8.4123 1.05957 6.44519 1.05957C5.96746 1.05957 5.52355 1.18117 5.15656 1.50242C4.76652 1.84383 4.57304 2.34059 4.57093 2.85195C4.56898 3.3225 4.57093 3.79309 4.57093 4.26363V10.6434V16.4342C4.57093 16.952 4.52089 17.4903 4.75355 17.9705C5.0473 18.5769 5.67765 18.9336 6.34043 18.9409C6.57531 18.9435 6.81035 18.9409 7.04519 18.9409H13.1968L13.6861 18.9409C13.9877 18.9408 13.9882 18.4721 13.6861 18.4721Z" fill="#F4F4F4"/>
<path d="M11.9357 2.29133C11.3236 2.29133 10.7115 2.29133 10.0994 2.29133C9.42876 2.29133 8.75138 2.31961 8.08126 2.29133C7.53978 2.26848 7.63794 1.67289 7.63794 1.29395C7.55982 1.37207 7.48169 1.4502 7.40357 1.52832H11.9567H12.6006C12.5225 1.4502 12.4443 1.37207 12.3662 1.29395C12.3662 1.6591 12.4663 2.26988 11.9357 2.29133C11.6351 2.30348 11.6335 2.7723 11.9357 2.76008C12.3868 2.74184 12.7702 2.42695 12.8263 1.96863C12.8533 1.74727 12.835 1.51668 12.835 1.29395C12.835 1.16727 12.7276 1.05957 12.6006 1.05957C11.0829 1.05957 9.56521 1.05957 8.04751 1.05957C7.83287 1.05957 7.61822 1.05957 7.40357 1.05957C7.27689 1.05957 7.16919 1.16695 7.16919 1.29395C7.16919 1.78141 7.11216 2.30484 7.57872 2.6141C7.84228 2.78883 8.15158 2.76004 8.45095 2.76004H11.1393H11.9357C12.2373 2.76008 12.2378 2.29133 11.9357 2.29133Z" fill="#F4F4F4"/>
<path d="M12.6012 16.6592C11.0835 16.6592 9.56577 16.6592 8.04807 16.6592C7.83342 16.6592 7.61877 16.6592 7.40413 16.6592C7.10252 16.6592 7.10202 17.1279 7.40413 17.1279H11.9572H12.6012C12.9028 17.1279 12.9033 16.6592 12.6012 16.6592Z" fill="#F4F4F4"/>
</svg>
